<?xml version="1.0" encoding="utf-8"?>
<!-- Generator: Adobe Illustrator 27.6.1, SVG Export Plug-In . SVG Version: 6.00 Build 0)  -->
<svg version="1.1" id="レイヤー_1" xmlns="http://www.w3.org/2000/svg" xmlns:xlink="http://www.w3.org/1999/xlink" x="0px"
	 y="0px" width="300px" height="300px" viewBox="0 0 300 300" style="enable-background:new 0 0 300 300;" xml:space="preserve">
<style type="text/css">
	.st0{fill:#333333;}
</style>
<g>
	<g>
		<g>
			<path class="st0" d="M158.43,31.68c-1.29,3.51-3.03,6.44-5.2,8.89c2.5,1.84,5.61,3.21,9.32,4.02c-0.88,0.86-2.1,2.63-2.65,3.69
				c-3.99-1.04-7.2-2.63-9.8-4.77c-2.7,2.12-5.91,3.71-9.65,4.85c-0.43-0.93-1.59-2.7-2.32-3.59c3.61-0.91,6.67-2.22,9.17-4.04
				c-2.1-2.5-3.71-5.53-5.05-9.04h-3.56V28.1h9.7v-3.84h3.79v3.84h9.82v3.59H158.43z M146.36,31.68c0.96,2.35,2.27,4.47,3.96,6.31
				c1.57-1.77,2.83-3.86,3.76-6.31H146.36z"/>
		</g>
		<g>
			<path class="st0" d="M121.32,71.14h6.25l6.74,21.75h-5.49l-1.26-4.99h-6.42l-1.25,4.99h-5.31L121.32,71.14z M122.13,83.86h4.44
				l-0.47-1.84c-0.58-2.16-1.14-4.76-1.72-6.98h-0.12c-0.53,2.28-1.11,4.82-1.66,6.98L122.13,83.86z"/>
		</g>
		<g>
			<path class="st0" d="M169.38,66.41c5.21,0,9.41,4.2,9.41,9.41c0,5.21-4.2,9.41-9.41,9.41s-9.41-4.2-9.41-9.41
				C159.97,70.61,164.18,66.41,169.38,66.41z"/>
		</g>
		<g>
			<path class="st0" d="M102.79,38.73l9.83,17.02H92.96L102.79,38.73z"/>
		</g>
		<g>
			<path class="st0" d="M208.47,49.05l2.8,8.51l-0.13,0.08l-7.25-5.28l-7.25,5.28l-0.13-0.08l2.8-8.51l-7.1-5.15v-0.18h8.81
				l2.78-8.46h0.15l2.78,8.46h8.81v0.18L208.47,49.05z"/>
		</g>
	</g>
	<g>
		<path class="st0" d="M166.05,142.99c-0.59-1.27-1.85-2.08-3.25-2.08h-8.01V96.46c0-1.98-1.6-3.58-3.58-3.58h-4.9
			c-1.98,0-3.58,1.6-3.58,3.58v44.44h-8.01c-1.4,0-2.66,0.81-3.25,2.08c-0.58,1.27-0.38,2.76,0.53,3.82l14.04,16.47
			c0.68,0.8,1.68,1.26,2.72,1.26c1.05,0,2.04-0.46,2.72-1.26l14.03-16.47C166.43,145.75,166.64,144.25,166.05,142.99z"/>
		<path class="st0" d="M212.75,270.62l-29.03-60.72c10.7-9.8,16.78-23.55,16.78-38.14c0-25.24-18.18-46.31-42.13-50.83v16.4h4.43
			c2.78,0,5.33,1.63,6.5,4.16c1.17,2.53,0.75,5.53-1.05,7.64l-14.04,16.47c-1.36,1.6-3.35,2.51-5.45,2.51
			c-2.1,0-4.09-0.92-5.45-2.52l-14.04-16.47c-1.8-2.12-2.22-5.12-1.05-7.64c1.17-2.52,3.72-4.16,6.5-4.16h4.43v-16.4
			c-23.95,4.52-42.13,25.58-42.13,50.83c0,14.6,6.08,28.34,16.78,38.14l-29.03,60.72c-0.53,1.11-0.45,2.41,0.2,3.45
			c0.66,1.04,1.8,1.67,3.03,1.67h121.5c1.23,0,2.37-0.63,3.03-1.67C213.2,273.03,213.27,271.73,212.75,270.62z"/>
	</g>
</g>
</svg>
